PathFileType	4	(X/Y/Z)	/home/nbianco/repos/AddBiomechanics/server/engine/../data/Rajagopal2015/processed//results/MarkerData/walk.trc
DataRate	CameraRate	NumFrames	NumMarkers	Units	OrigDataRate	OrigDataStartFrame	OrigNumFrames
100	100	6	41	m	100	59	238
Frame#	Time	L.ASIS			L.Ankle			L.Biceps			L.Clavicle			L.Elbow			L.Forearm			L.Heel			L.Knee			L.MT5			L.PSIS			L.SH1			L.SH2			L.SH3			L.Shoulder			L.TH1			L.TH2			L.TH3			L.TH4			L.Toe			L.Wrist			R.ASIS			R.Ankle			R.Biceps			R.Clavicle			R.Elbow			R.Forearm			R.Heel			R.Knee			R.MT5			R.PSIS			R.SH1			R.SH2			R.SH3			R.SH4			R.Shoulder			R.TH1			R.TH2			R.TH3			R.Toe			R.Wrist			S2		
		X1	Y1	Z1	X2	Y2	Z2	X3	Y3	Z3	X4	Y4	Z4	X5	Y5	Z5	X6	Y6	Z6	X7	Y7	Z7	X8	Y8	Z8	X9	Y9	Z9	X10	Y10	Z10	X11	Y11	Z11	X12	Y12	Z12	X13	Y13	Z13	X14	Y14	Z14	X15	Y15	Z15	X16	Y16	Z16	X17	Y17	Z17	X18	Y18	Z18	X19	Y19	Z19	X20	Y20	Z20	X21	Y21	Z21	X22	Y22	Z22	X23	Y23	Z23	X24	Y24	Z24	X25	Y25	Z25	X26	Y26	Z26	X27	Y27	Z27	X28	Y28	Z28	X29	Y29	Z29	X30	Y30	Z30	X31	Y31	Z31	X32	Y32	Z32	X33	Y33	Z33	X34	Y34	Z34	X35	Y35	Z35	X36	Y36	Z36	X37	Y37	Z37	X38	Y38	Z38	X39	Y39	Z39	X40	Y40	Z40	X41	Y41	Z41

60	0.59	0.183836	1.03121	-0.354248	-0.0138684	0.248429	-0.342236	0.104663	1.32353	-0.476418	0.164367	1.49772	-0.24216	0.0804726	1.20198	-0.50307	0.162477	1.0855	-0.516223	-0.118079	0.251948	-0.277193	0.259977	0.558012	-0.404219	0.00137472	0.119647	-0.380339	-0.0166832	1.0212	-0.255069	0.229959	0.444593	-0.390462	0.163879	0.5161	-0.402345	0.0825441	0.435994	-0.381048	0.0970293	1.54886	-0.386679	0.262493	0.844559	-0.402474	0.307211	0.721524	-0.396821	0.169217	0.820093	-0.44657	0.198761	0.688827	-0.427265	0.102975	0.0640696	-0.303635	0.216432	0.98348	-0.511029	0.207942	1.02985	-0.102101	0.103232	0.109131	-0.1366	0.1366	1.26724	0.0291694	0.164551	1.4953	-0.191894	0.0885992	1.17933	0.0647341	0.178274	1.05964	0.0702728	0.0219219	0.0385341	-0.187673	0.167917	0.520457	-0.100565	0.212381	0.0367566	-0.0996487	-0.00900826	1.02618	-0.164094	0.176966	0.420955	-0.0992547	0.16186	0.309354	-0.101487	0.093139	0.426975	-0.0913122	0.0770516	0.30791	-0.0984558	0.105992	1.53027	-0.0440631	0.201437	0.787966	-0.0403015	0.0945575	0.764848	-0.0267801	0.108627	0.64136	-0.0661264	0.322237	0.0568562	-0.196887	0.22688	0.945623	0.0714988	-0.0234252	1.00072	-0.206575
61	0.6	0.195821	1.03325	-0.353342	0.0187596	0.240048	-0.342842	0.112631	1.32472	-0.47702	0.175746	1.49873	-0.242366	0.0870254	1.20357	-0.503675	0.167608	1.08624	-0.518393	-0.0853549	0.236873	-0.278494	0.27915	0.562242	-0.403296	0.0415993	0.112633	-0.381466	-0.00502801	1.02237	-0.255444	0.253543	0.447483	-0.390147	0.184167	0.516233	-0.401412	0.10631	0.432701	-0.38066	0.107868	1.54973	-0.386531	0.277523	0.849208	-0.401406	0.323815	0.726772	-0.395473	0.184439	0.823393	-0.446695	0.216223	0.69251	-0.42737	0.145753	0.0625121	-0.304498	0.220621	0.983612	-0.514315	0.219386	1.03011	-0.101273	0.103315	0.10928	-0.136733	0.151005	1.26939	0.0294677	0.176149	1.4966	-0.191946	0.104151	1.18099	0.0652797	0.19553	1.06267	0.0702029	0.0220163	0.038855	-0.187707	0.170674	0.520472	-0.100319	0.212536	0.03677	-0.0996815	0.00280383	1.02737	-0.164515	0.178286	0.420967	-0.0988269	0.162788	0.30951	-0.101124	0.0948129	0.427366	-0.0915883	0.0779501	0.308393	-0.0987608	0.118113	1.53197	-0.0441354	0.209307	0.787522	-0.0403424	0.102461	0.765979	-0.0267881	0.114386	0.642392	-0.0664336	0.322306	0.0565068	-0.196827	0.245817	0.949441	0.0710492	-0.0115163	1.0018	-0.206971
62	0.61	0.207877	1.0348	-0.352458	0.0522117	0.231028	-0.343688	0.120625	1.32566	-0.477615	0.18751	1.49954	-0.2426	0.0935965	1.20494	-0.504302	0.172912	1.08678	-0.52039	-0.0518779	0.221034	-0.280016	0.297899	0.566002	-0.402228	0.0829067	0.105285	-0.38272	0.00656867	1.02321	-0.255883	0.2767	0.450169	-0.389749	0.204422	0.515698	-0.400146	0.129973	0.42875	-0.380297	0.118838	1.55024	-0.386426	0.292152	0.853419	-0.399969	0.339972	0.731523	-0.393905	0.199526	0.826772	-0.446579	0.233321	0.695917	-0.427415	0.189369	0.0612269	-0.305369	0.224878	0.983474	-0.517628	0.230924	1.03008	-0.100474	0.103486	0.109448	-0.136886	0.165211	1.27121	0.0297023	0.188118	1.4975	-0.192053	0.119412	1.18235	0.0658766	0.212652	1.06543	0.0701261	0.0222225	0.0390004	-0.187717	0.173569	0.520459	-0.100078	0.212685	0.0367336	-0.0997197	0.0144237	1.02829	-0.165057	0.179862	0.421037	-0.0983892	0.163789	0.309567	-0.100874	0.0964282	0.427792	-0.0917752	0.0789522	0.308924	-0.0990599	0.13036	1.53332	-0.0442196	0.21764	0.787091	-0.0406747	0.109952	0.76721	-0.0266538	0.119949	0.643374	-0.0666297	0.322431	0.0562001	-0.196775	0.264814	0.953162	0.0705943	0.000128777	1.00249	-0.207428
63	0.62	0.219763	1.03597	-0.351722	0.0863635	0.221471	-0.34476	0.128867	1.32631	-0.478198	0.199264	1.50014	-0.242751	0.100605	1.20582	-0.504827	0.178397	1.08705	-0.522313	-0.0176875	0.204687	-0.281713	0.316032	0.569348	-0.401037	0.125019	0.0978905	-0.384203	0.0181815	1.0237	-0.256441	0.299229	0.452555	-0.389264	0.224151	0.514607	-0.398939	0.153858	0.424058	-0.380078	0.129894	1.55055	-0.386379	0.3061	0.856925	-0.39833	0.355863	0.735925	-0.39212	0.215231	0.829704	-0.446159	0.250099	0.69901	-0.427464	0.233806	0.0604777	-0.306487	0.229424	0.983191	-0.521132	0.242402	1.02979	-0.0998083	0.10373	0.109665	-0.137051	0.179431	1.27271	0.0298907	0.200221	1.49811	-0.192234	0.134419	1.18346	0.0665181	0.229667	1.06798	0.0700335	0.0225694	0.0389148	-0.187727	0.176471	0.520365	-0.0998178	0.212788	0.0366878	-0.0997539	0.0259566	1.02876	-0.165681	0.1817	0.421032	-0.0980914	0.164958	0.309549	-0.100688	0.0983775	0.428161	-0.0917695	0.0800717	0.309459	-0.0993083	0.142649	1.53434	-0.0443345	0.225681	0.78634	-0.0408019	0.117107	0.768507	-0.0265338	0.125368	0.644318	-0.0667746	0.322636	0.0559699	-0.196682	0.283789	0.956678	0.0700375	0.0115256	1.00294	-0.208064
64	0.63	0.231478	1.0368	-0.35109	0.121266	0.211591	-0.346076	0.137291	1.32667	-0.478717	0.210987	1.50035	-0.242951	0.108201	1.20609	-0.505093	0.183896	1.08709	-0.524183	0.0177447	0.187913	-0.283576	0.333408	0.572275	-0.399696	0.167852	0.0907177	-0.385912	0.0297152	1.02389	-0.257204	0.321382	0.454516	-0.388579	0.243259	0.512693	-0.397932	0.177978	0.418334	-0.380193	0.141034	1.55057	-0.386431	0.319997	0.860073	-0.396433	0.37139	0.739751	-0.390165	0.230764	0.832106	-0.445839	0.266529	0.701749	-0.427497	0.278653	0.0603052	-0.307806	0.233957	0.982803	-0.524132	0.253832	1.02926	-0.0992925	0.104017	0.109888	-0.137219	0.193498	1.27384	0.0300887	0.212339	1.49846	-0.19243	0.14936	1.1842	0.0672033	0.246571	1.07026	0.0699213	0.0227456	0.0389178	-0.187757	0.179625	0.520258	-0.0996417	0.212864	0.0366263	-0.0997835	0.0374033	1.02887	-0.166386	0.183992	0.420845	-0.0979309	0.166342	0.309517	-0.100578	0.100446	0.428566	-0.0915917	0.0814162	0.310027	-0.0993532	0.154933	1.53504	-0.0445002	0.23358	0.785554	-0.0408643	0.124917	0.769373	-0.0266766	0.130908	0.645152	-0.0668016	0.322757	0.0557556	-0.196526	0.302784	0.960118	0.0693927	0.0229602	1.00308	-0.208882
65	0.64	0.24314	1.03731	-0.350655	0.156983	0.201466	-0.347452	0.145883	1.32674	-0.479245	0.222734	1.50024	-0.24314	0.115597	1.20632	-0.505556	0.189514	1.08689	-0.525962	0.0545687	0.170911	-0.285681	0.349925	0.574659	-0.398178	0.211212	0.0839237	-0.387825	0.0412395	1.02372	-0.258168	0.343232	0.45608	-0.387504	0.262036	0.50976	-0.397157	0.202118	0.411634	-0.380496	0.15238	1.55032	-0.386512	0.33391	0.86272	-0.394459	0.386293	0.742897	-0.388045	0.245565	0.834088	-0.445595	0.282402	0.703994	-0.427421	0.323793	0.0607184	-0.309363	0.238451	0.982121	-0.526731	0.264974	1.02832	-0.098875	0.104249	0.110088	-0.137375	0.207504	1.27459	0.0302863	0.224456	1.49865	-0.192614	0.1642	1.18468	0.0678729	0.263434	1.07239	0.0698164	0.022845	0.039029	-0.187802	0.182781	0.520098	-0.0994358	0.212929	0.0365898	-0.099815	0.048596	1.02866	-0.167186	0.186208	0.420585	-0.0978529	0.167871	0.309481	-0.100588	0.102682	0.428993	-0.0912819	0.0829026	0.310546	-0.0991963	0.16733	1.5354	-0.0446679	0.241479	0.784764	-0.0409136	0.132893	0.769905	-0.0266837	0.136735	0.645828	-0.0666902	0.322702	0.0553995	-0.196368	0.321769	0.963516	0.0687638	0.0345026	1.00285	-0.209838
